<?xml version="1.0" encoding="utf-8"?><!-- Скачано с сайта svg4.ru / Downloaded from svg4.ru -->
<svg fill="#000000" width="800px" height="800px" viewBox="0 -8.08 96 96" xmlns="http://www.w3.org/2000/svg">
  <path id="_strategy" data-name="
strategy" d="M255.673,478.174a1.293,1.293,0,0,1-.68-1.557,8.854,8.854,0,0,1,2.967-4.944c.77-.686,1.53-1.379,2.256-2.106a.93.93,0,0,0-.059-1.379c-.967-.924-1.942-1.841-2.955-2.718a9.4,9.4,0,0,1-2.661-4.1,3.265,3.265,0,0,1,2.519-4.2,2.489,2.489,0,0,1,.906.133,13.924,13.924,0,0,1,4.692,2.289c1.17.845,2.379,1.633,3.554,2.47a1.53,1.53,0,0,0,1.969-.1,25.014,25.014,0,0,0,5.966-5.775c.815-1.129,2.1-1.626,3.01-2.6.22-.232.789-.228,1.182-.188a9.5,9.5,0,0,1,1.8.4c.835.257,1.175.813,1,2.125a6.768,6.768,0,0,1-2.247,4.073c-1.744,1.748-3.355,3.632-4.988,5.494-.652.742-.565,1.107.245,1.786a17.846,17.846,0,0,0,2.875,2.324,6.768,6.768,0,0,1,2.58,2.939,2.917,2.917,0,0,1-.277,3.471,3.492,3.492,0,0,1-3.4,1.631,11.488,11.488,0,0,1-5.578-2.46c-1-.731-1.984-1.478-2.975-2.217a.9.9,0,0,0-1.131.013c-.423.287-.848.581-1.241.909q-2.248,1.883-4.473,3.782a4.894,4.894,0,0,1-2.83,1.105q-.142.013-.277.013A2.893,2.893,0,0,1,255.673,478.174ZM311,471.941c-1.76-4.294-4.054-8.326-6.2-12.427a52.613,52.613,0,0,0-7.75-10.753,47.391,47.391,0,0,0-15.268-11.376,122.406,122.406,0,0,0-12.427-5.462,52.166,52.166,0,0,0-11.111-2.471.655.655,0,0,0-.495.3.522.522,0,0,0,.112.5,16.686,16.686,0,0,1,3.2,4.1,4.6,4.6,0,0,1,.54,3.287,3.379,3.379,0,0,1-3.69,2.512,8.313,8.313,0,0,1-3.072-1.389c-1.636-1.248-3.375-2.367-4.955-3.682a14.392,14.392,0,0,0-3.682-2.218,9.2,9.2,0,0,1-3.527-2.434,3.12,3.12,0,0,1-.419-3.971c1.732-3.082,1.734-3.081,4.835-4.878.98-.572,1.938-1.178,2.92-1.741,2.407-1.376,4.725-2.924,7.573-3.346a19.155,19.155,0,0,0,2.291-.9,3.188,3.188,0,0,1,2.951.387,2.75,2.75,0,0,1,.509,4.084c-.376.536-1.279.608-1.243,1.469.607.075,1.227.1,1.821.233a44.518,44.518,0,0,1,5.39,1.3c7.559,2.7,15.054,5.55,22,9.667a53.779,53.779,0,0,1,12.146,9.463,23.742,23.742,0,0,1,5.472,8.5c.789,2.327,1.955,4.527,2.945,6.789a3.982,3.982,0,0,1,.409,1.148c.251,2.561.462,5.126.727,8.168-.205,1.376-.436,3.208-.779,5.022a6.279,6.279,0,0,1-.788,1.578A15.113,15.113,0,0,0,311,471.941Zm-90.292-15.656a11.741,11.741,0,0,1-2.17-2.181,4.334,4.334,0,0,1-.825-1.951c-.3-2.141-.528-4.294-.673-6.451a20.593,20.593,0,0,1,1.227-8.194,8.206,8.206,0,0,1,5.136-5.387,14.38,14.38,0,0,1,4.459-1.15,5.213,5.213,0,0,0,1.224-.126c4-1.119,7.509.326,10.909,2.13a5.967,5.967,0,0,1,1.891,1.98,14.435,14.435,0,0,1,2.523,9.087,21.717,21.717,0,0,1-1.416,7.843,15.553,15.553,0,0,1-3.691,5.643,7.92,7.92,0,0,1-5.2,2.408q-.99.08-1.959.081A18.389,18.389,0,0,1,220.709,456.285Zm9.6-3.2a5.909,5.909,0,0,0,5.971-1.507c.373-.35.945-.69,1.023-1.111.3-1.6,1.176-3.146.725-4.813-.562-2.081-1.248-4.128-1.94-6.168a1.615,1.615,0,0,0-1.443-1.009,3.33,3.33,0,0,0-2.066.422c-3.062,1.62-5.309,4.154-7.587,6.653a3.549,3.549,0,0,0-.7,2.624,2.54,2.54,0,0,0,.941,2.483c1.063,1.12,2.074,2.324,3.886,2.127a.854.854,0,0,1,.094-.005A4.557,4.557,0,0,1,230.31,453.081Zm49.423-35.006a2.3,2.3,0,0,1,.031-1.767,19.4,19.4,0,0,1,1.717-2.909,9.71,9.71,0,0,1,1.255-1.36c1.613-1.59,1.529-1.82-.408-3.248a6.5,6.5,0,0,0-1.855-1.094c-1.88-.571-3.091-2-4.4-3.28a5.619,5.619,0,0,1-1.117-1.814,2.209,2.209,0,0,1,1.635-3.077c2.135-.294,4.264-.445,6.244.887,1.526,1.031,3.227,1.809,4.842,2.71a1.5,1.5,0,0,0,1.949-.321,22.809,22.809,0,0,0,2.055-2.294,3.8,3.8,0,0,1,2.89-1.562c1.574-.12,2.442.727,2.168,2.2a12.6,12.6,0,0,1-1.426,4.368,1,1,0,0,0,.433,1.557,17.878,17.878,0,0,0,3.022,1.517,27.208,27.208,0,0,1,5.995,3.137,7.178,7.178,0,0,1,1.792,1.654,2.641,2.641,0,0,1,.331,3.15c-.831,1.443-1.762,2.123-3.134,2.1a6.372,6.372,0,0,1-3.491-1.092c-2.544-1.6-5.524-2.225-8.11-3.716a8.842,8.842,0,0,0-1.165-.4,1.079,1.079,0,0,0-1.345.414c-.777.957-1.515,1.943-2.294,2.9a15.346,15.346,0,0,1-2.013,2.324,4.358,4.358,0,0,1-2.682,1.124A3.35,3.35,0,0,1,279.733,418.074Z" transform="translate(-217.001 -398.934)"/>
</svg>